<svg width="0" height="0" fill="none" style="visibility: hidden; position: absolute;" aria-hidden="true" xmlns="http://www.w3.org/2000/svg">
    <defs>
        <symbol id='arrow-fill-left' width="24" height="24" fill="none" viewBox="0 0 24 24">
            <path fill="currentColor" fill-rule="evenodd" d="m14.5 15.47-1.06 1.062L8.898 12l4.542-4.531 1.06 1.062L11.021 12l3.479 3.47ZM12 2.25c-5.376 0-9.75 4.374-9.75 9.75s4.374 9.75 9.75 9.75 9.75-4.374 9.75-9.75S17.376 2.25 12 2.25Z" clip-rule="evenodd"/>
        </symbol>
        <symbol id='arrow-fill-right' width="24" height="24" fill="none" viewBox="0 0 24 24">
            <path fill="currentColor" fill-rule="evenodd" d="M10.56 16.532 9.5 15.47 12.979 12 9.5 8.531l1.06-1.062L15.102 12l-4.542 4.532ZM12 2.25c-5.376 0-9.75 4.374-9.75 9.75s4.374 9.75 9.75 9.75 9.75-4.374 9.75-9.75S17.376 2.25 12 2.25Z" clip-rule="evenodd"/>
        </symbol>
        <symbol id='content' width="24" height="24" fill="none" viewBox="0 0 24 24">
            <path fill="currentColor" fill-rule="evenodd" d="M6.88 15.84h10.24v-1.5H6.88v1.5Zm5.33-9.89L9.95 3.17h-7.7v17.66h19.5V5.95h-9.54Z" clip-rule="evenodd"/>
        </symbol>
        <symbol id='new-chat' width="24" height="24" fill="none" viewBox="0 0 24 24">
            <path fill="currentColor" d="m19.51 5.85-5.94-3.43c-.97-.56-2.17-.56-3.15 0L4.49 5.85a3.15 3.15 0 0 0-1.57 2.73v6.84c0 1.12.6 2.16 1.57 2.73l5.94 3.43c.97.56 2.17.56 3.15 0l5.94-3.43a3.15 3.15 0 0 0 1.57-2.73V8.58a3.192 3.192 0 0 0-1.58-2.73Zm-5.26 7.55-1.04.6-1.04.6c-1.33.77-2.42.14-2.42-1.4v-2.4c0-1.54 1.09-2.17 2.42-1.4l1.04.6 1.04.6c1.33.77 1.33 2.03 0 2.8Z"/>
        </symbol>
        <symbol id='search' width="24" height="24" fill="none" viewBox="0 0 24 24">
            <path fill="currentColor" d="M11.5 2C6.26 2 2 6.26 2 11.5S6.26 21 11.5 21s9.5-4.26 9.5-9.5S16.74 2 11.5 2Zm0 11.75h-3c-.41 0-.75-.34-.75-.75s.34-.75.75-.75h3c.41 0 .75.34.75.75s-.34.75-.75.75Zm3-3h-6c-.41 0-.75-.34-.75-.75s.34-.75.75-.75h6c.41 0 .75.34.75.75s-.34.75-.75.75Zm6.8 11.249c-.18 0-.36-.07-.49-.2l-1.86-1.86a.706.706 0 0 1 0-.99c.27-.27.71-.27.99 0l1.86 1.86c.27.27.27.71 0 .99-.14.13-.32.2-.5.2Z"/>
        </symbol>
        <symbol id='snapbook' width="24" height="24" fill="none" viewBox="0 0 24 24">
            <path fill="currentColor" fill-rule="evenodd" d="M2.05 10.95h8v-8h-8v8Zm19.9-6.828L14.222 2.05l-2.07 7.728 7.727 2.07 2.07-7.727ZM2.05 21.95h8v-8h-8v8Zm11 0h8v-8h-8v8Z" clip-rule="evenodd"/>
        </symbol>
        <symbol id='upload' width="24" height="24" fill="none" viewBox="0 0 24 24">
            <path fill="currentColor" d="M16.19 2H7.81C4.17 2 2 4.17 2 7.81v8.37C2 19.83 4.17 22 7.81 22h8.37c3.64 0 5.81-2.17 5.81-5.81V7.81C22 4.17 19.83 2 16.19 2Zm-.13 12c-.15.15-.34.22-.53.22s-.38-.08-.53-.22l-3-3-3 3c-.29.29-.77.29-1.06 0a.754.754 0 0 1 0-1.06l3.53-3.53c.29-.29.77-.29 1.06 0l3.53 3.53c.29.29.29.76 0 1.06Z"/>
        </symbol>
        <symbol id='write' width="24" height="24" fill="none" viewBox="0 0 24 24">
            <path fill="currentColor" d="M21 22H3c-.41 0-.75-.34-.75-.75s.34-.75.75-.75h18c.41 0 .75.34.75.75s-.34.75-.75.75ZM19.02 3.48c-1.94-1.94-3.84-1.99-5.83 0l-1.21 1.21c-.1.1-.14.26-.1.4a8.129 8.129 0 0 0 5.53 5.53.4.4 0 0 0 .41-.1l1.2-1.21c.99-.98 1.47-1.93 1.47-2.89.01-.99-.47-1.95-1.47-2.94Zm-3.41 8.05c-.29-.14-.57-.28-.84-.44a8.8 8.8 0 0 1-.64-.42c-.17-.11-.37-.27-.56-.43a1.22 1.22 0 0 1-.17-.15c-.33-.28-.7-.64-1.03-1.04-.03-.02-.08-.09-.15-.18-.1-.12-.27-.32-.42-.55a5.49 5.49 0 0 1-.39-.59c-.16-.27-.3-.54-.44-.82-.184-.394-.7-.51-1.007-.203L4.339 12.33c-.13.13-.25.38-.28.55l-.54 3.83c-.1.68.09 1.32.51 1.75.36.35.86.54 1.4.54.12 0 .24-.01.36-.03l3.84-.54c.18-.03.43-.15.55-.28l5.633-5.633c.3-.3.188-.818-.203-.987Z"/>
        </symbol>
        <symbol id='arrow-down' width="24" height="24" fill="none" viewBox="0 0 24 24">
            <path fill="currentColor" fill-rule="evenodd" d="M12 16.914 3.586 8.5 5 7.086l7 7 7-7L20.414 8.5 12 16.914Z" clip-rule="evenodd"/>
        </symbol>
        <symbol id='arrow-up' width="24" height="24" fill="none" viewBox="0 0 24 24">
            <path fill="currentColor" fill-rule="evenodd" d="m19 16.914-7-7-7 7L3.586 15.5 12 7.086l8.414 8.414L19 16.914Z" clip-rule="evenodd"/>
        </symbol>
        <symbol id='arrow-left' width="24" height="24" fill="none" viewBox="0 0 24 24">
            <path fill="currentColor" fill-rule="evenodd" d="M15.5 20.414 7.086 12 15.5 3.586 16.914 5l-7 7 7 7-1.414 1.414Z" clip-rule="evenodd"/>
        </symbol>
        <symbol id='arrow-right' width="24" height="24" fill="none" viewBox="0 0 24 24">
            <path fill="currentColor" fill-rule="evenodd" d="M8.5 20.414 7.086 19l7-7-7-7L8.5 3.586 16.914 12 8.5 20.414Z" clip-rule="evenodd"/>
        </symbol>
        <symbol id='learningChat' width="24" height="24" fill="none" viewBox="0 0 24 24">
            <path fill="currentColor" fill-rule="evenodd" d="M14.94 13.131h1.598v-1.5H14.94v1.5Zm-3.736 0h1.6v-1.5h-1.6v1.5Zm-3.734 0h1.6v-1.5h-1.6v1.5ZM18.906 5.12a9.657 9.657 0 0 0-6.876-2.845A9.662 9.662 0 0 0 5.152 5.12a9.66 9.66 0 0 0-2.85 6.885c.003 3.351-.048 9.194-.048 9.194l-.004.51.508-.005c.058 0 5.81-.052 9.06.02l.222.001a9.633 9.633 0 0 0 6.866-2.849c3.792-3.793 3.792-9.964 0-13.757Z" clip-rule="evenodd"/>
        </symbol>
        <symbol id='edit' width="24" height="24" fill="none" viewBox="0 0 24 24">
            <path fill="currentColor" fill-rule="evenodd" d="M16.5 3.5a2.121 2.121 0 0 1 3 3L7 19l-4 1 1-4L16.5 3.5z" clip-rule="evenodd"/>
        </symbol>
        
    </defs>
</svg>